<?xml version="1.0" encoding="UTF-8" standalone="no"?>
<!-- Created with Inkscape (http://www.inkscape.org/) -->

<svg
   width="512mm"
   height="512mm"
   viewBox="0 0 512 512"
   version="1.1"
   id="svg5"
   xml:space="preserve"
   inkscape:version="1.2 (dc2aedaf03, 2022-05-15)"
   sodipodi:docname="logo.svg"
   inkscape:export-filename="logo.png"
   inkscape:export-xdpi="25.4"
   inkscape:export-ydpi="25.4"
   xmlns:inkscape="http://www.inkscape.org/namespaces/inkscape"
   xmlns:sodipodi="http://sodipodi.sourceforge.net/DTD/sodipodi-0.dtd"
   xmlns="http://www.w3.org/2000/svg"
   xmlns:svg="http://www.w3.org/2000/svg"><sodipodi:namedview
     id="namedview7"
     pagecolor="#567bff"
     bordercolor="#ffffff"
     borderopacity="1"
     inkscape:showpageshadow="0"
     inkscape:pageopacity="1"
     inkscape:pagecheckerboard="1"
     inkscape:deskcolor="#505050"
     inkscape:document-units="mm"
     showgrid="false"
     inkscape:zoom="0.4204826"
     inkscape:cx="170.04271"
     inkscape:cy="853.78086"
     inkscape:window-width="2880"
     inkscape:window-height="1706"
     inkscape:window-x="4309"
     inkscape:window-y="903"
     inkscape:window-maximized="1"
     inkscape:current-layer="layer2" /><defs
     id="defs2" /><g
     inkscape:groupmode="layer"
     id="layer2"
     inkscape:label="Layer 2"><rect
       style="fill:#0b3dff;fill-opacity:0.63358778;stroke:#000000;stroke-width:0.259987;stroke-opacity:0"
       id="rect471"
       width="512.88037"
       height="48.257683"
       x="-0.68866706"
       y="463.93402" /></g><g
     inkscape:label="Layer 1"
     inkscape:groupmode="layer"
     id="layer1"><path
       d="m 143.69049,91.161845 q -3.79789,0 -6.51069,-2.621485 -2.71277,-2.621493 -2.71277,-6.291671 V 40.304191 q 0,-3.669971 2.71277,-6.291664 2.7128,-2.621494 6.51069,-2.621494 h 32.55349 q 3.79791,0 6.51069,2.621494 2.7128,2.621693 2.7128,6.291664 v 41.944498 q 0,3.670178 -2.7128,6.291671 -2.71278,2.621485 -6.51069,2.621485 z m 3.79792,-12.583321 h 24.95767 V 43.974367 H 147.48841 Z M 67.732401,91.161845 q -3.797919,0 -6.510695,-2.621485 Q 58.50891,85.918867 58.50891,82.248689 V 40.304191 q 0,-3.669971 2.712796,-6.291664 2.712776,-2.621494 6.510695,-2.621494 h 32.553479 q 3.7979,0 6.51069,2.621494 2.71278,2.621693 2.71278,6.291664 v 8.913357 H 96.48796 V 43.974367 H 71.530304 V 78.578524 H 96.48796 v -5.242996 h 13.02139 v 8.913161 q 0,3.670178 -2.71278,6.291671 -2.71279,2.621485 -6.51069,2.621485 z M 210.42513,122.62017 V 97.97785 q 0,-3.67017 2.7128,-6.291663 2.71279,-2.621493 6.51069,-2.621493 h 23.32999 V 75.432688 H 210.42513 V 62.849356 h 36.35138 q 3.79791,0 6.51071,2.621496 Q 256,68.092541 256,71.762514 v 15.729161 q 0,3.67017 -2.71278,6.291672 -2.7128,2.621689 -6.51071,2.621689 H 223.44652 V 110.03685 H 256 v 12.58332 z"
       id="path132"
       style="stroke-width:5.33356" /><text
       xml:space="preserve"
       style="font-size:256.008px;font-family:sans-serif;-inkscape-font-specification:'sans-serif, Normal';fill:#000000;stroke:#000000;stroke-width:1.60005;stroke-opacity:0"
       x="67.384331"
       y="422.41257"
       id="text533"
       transform="scale(0.98645422,1.0137318)"><tspan
         sodipodi:role="line"
         id="tspan531"
         x="67.384331"
         y="422.41257"
         style="fill:#000000;stroke-width:1.60005">UK</tspan></text><text
       xml:space="preserve"
       style="font-size:74.1754px;font-family:sans-serif;-inkscape-font-specification:'sans-serif, Normal';fill:#000000;stroke:#000000;stroke-width:0.463596;stroke-opacity:0"
       x="107.78936"
       y="207.43506"
       id="text533-3"
       transform="scale(1.1086718,0.90198019)"><tspan
         sodipodi:role="line"
         id="tspan531-3"
         x="107.78936"
         y="207.43506"
         style="fill:#000000;stroke-width:0.463596">Intensity</tspan></text></g></svg>
