<?xml version="1.0" encoding="UTF-8" standalone="no"?>
<!-- Created with Inkscape (http://www.inkscape.org/) -->

<svg
   width="512mm"
   height="512mm"
   viewBox="0 0 512 512"
   version="1.1"
   id="svg5"
   xml:space="preserve"
   inkscape:version="1.2 (dc2aedaf03, 2022-05-15)"
   sodipodi:docname="logo.svg"
   inkscape:export-filename="logo.png"
   inkscape:export-xdpi="25.4"
   inkscape:export-ydpi="25.4"
   xmlns:inkscape="http://www.inkscape.org/namespaces/inkscape"
   xmlns:sodipodi="http://sodipodi.sourceforge.net/DTD/sodipodi-0.dtd"
   xmlns="http://www.w3.org/2000/svg"
   xmlns:svg="http://www.w3.org/2000/svg"><sodipodi:namedview
     id="namedview7"
     pagecolor="#567bff"
     bordercolor="#ffffff"
     borderopacity="1"
     inkscape:showpageshadow="0"
     inkscape:pageopacity="1"
     inkscape:pagecheckerboard="1"
     inkscape:deskcolor="#505050"
     inkscape:document-units="mm"
     showgrid="false"
     inkscape:zoom="0.5946522"
     inkscape:cx="-227.02346"
     inkscape:cy="894.6406"
     inkscape:window-width="2880"
     inkscape:window-height="1706"
     inkscape:window-x="4309"
     inkscape:window-y="903"
     inkscape:window-maximized="1"
     inkscape:current-layer="layer1" /><defs
     id="defs2" /><g
     inkscape:label="Layer 1"
     inkscape:groupmode="layer"
     id="layer1"><path
       d="m 228.87208,159.80295 q -7.59578,0 -13.02138,-5.63201 -5.42555,-5.63203 -5.42555,-13.51706 V 50.540107 q 0,-7.884585 5.42555,-13.517043 5.4256,-5.632031 13.02138,-5.632031 h 65.10697 q 7.59583,0 13.02138,5.632031 5.4256,5.632458 5.4256,13.517043 v 90.113773 q 0,7.88503 -5.4256,13.51706 -5.42555,5.63201 -13.02138,5.63201 z m 7.59584,-27.03407 h 49.91533 V 58.425132 H 236.46792 Z M 76.955892,159.80295 q -7.595838,0 -13.02139,-5.63201 -5.425592,-5.63203 -5.425592,-13.51706 V 50.540107 q 0,-7.884585 5.425592,-13.517043 5.425552,-5.632031 13.02139,-5.632031 h 65.106958 q 7.5958,0 13.02138,5.632031 5.42556,5.632458 5.42556,13.517043 V 69.689609 H 134.46701 V 58.425132 H 84.551699 V 132.76888 H 134.46701 V 121.5048 h 26.04278 v 19.14908 q 0,7.88503 -5.42556,13.51706 -5.42558,5.63201 -13.02138,5.63201 z m 285.385458,67.58523 v -52.94169 q 0,-7.88501 5.4256,-13.51704 5.42558,-5.63203 13.02138,-5.63203 h 46.65999 V 126.01035 H 362.34135 V 98.976254 h 72.70277 q 7.59582,0 13.02141,5.632036 5.42556,5.63245 5.42556,13.51704 v 33.79261 q 0,7.88501 -5.42556,13.51706 -5.42559,5.63245 -13.02141,5.63245 h -46.65999 v 29.28665 h 65.10696 v 27.03408 z"
       id="path132"
       style="stroke-width:11.0558" /><text
       xml:space="preserve"
       style="font-size:275.997px;font-family:sans-serif;-inkscape-font-specification:'sans-serif, Normal';fill:#000000;stroke:#000000;stroke-width:1.72498;stroke-opacity:0"
       x="72.750351"
       y="436.82874"
       id="text533"
       transform="scale(0.91466831,1.0932925)"><tspan
         sodipodi:role="line"
         id="tspan531"
         x="72.750351"
         y="436.82874"
         style="fill:#000000;stroke-width:1.72498">UK</tspan></text></g></svg>
